<svg xmlns="http://www.w3.org/2000/svg" width="73" height="41" viewBox="0 0 73 41">
  <metadata><?xpacket begin="﻿" id="W5M0MpCehiHzreSzNTczkc9d"?>
<x:xmpmeta xmlns:x="adobe:ns:meta/" x:xmptk="Adobe XMP Core 5.6-c138 79.159824, 2016/09/14-01:09:01        ">
   <rdf:RDF xmlns:rdf="http://www.w3.org/1999/02/22-rdf-syntax-ns#">
      <rdf:Description rdf:about=""/>
   </rdf:RDF>
</x:xmpmeta>
                                                                                                    
                                                                                                    
                                                                                                    
                                                                                                    
                                                                                                    
                                                                                                    
                                                                                                    
                                                                                                    
                                                                                                    
                                                                                                    
                                                                                                    
                                                                                                    
                                                                                                    
                                                                                                    
                                                                                                    
                                                                                                    
                                                                                                    
                                                                                                    
                                                                                                    
                                                                                                    
                           
<?xpacket end="w"?></metadata>
<defs>
    <style>
      .cls-1 {
        fill: #ff4701;
      }

      .cls-1, .cls-2 {
        fill-rule: evenodd;
      }
    </style>
  </defs>
  <path id="X" class="cls-1" d="M5.587,39l12.34-16.325L30.212,39H35.8L20.719,18.942,34.958,0H29.374L17.927,15.21,6.424,0H0.84L15.135,18.942,0,39H5.587Z"/>
  <path id="cars" class="cls-2" d="M38.139,27.467a6.537,6.537,0,0,0,3.043-.724V25.295a6.908,6.908,0,0,1-3.043.7c-2.847,0-4.187-2.117-4.187-5.515,0-3.342,1.563-5.543,4.383-5.543a5.156,5.156,0,0,1,2.708.752V14.209a5.69,5.69,0,0,0-2.9-.724c-3.573,0-5.806,2.757-5.806,6.991S34.286,27.467,38.139,27.467Zm15.271-1.56a1.082,1.082,0,0,1-1.172-1.281V18.332c0-2.813-1.172-4.846-4.745-4.846a11.725,11.725,0,0,0-4.02.752v1.532a9.843,9.843,0,0,1,3.852-.836c2.624,0,3.35,1.42,3.35,3.2v1.393a10.806,10.806,0,0,0-2.736-.39c-3.043,0-5.276,1.421-5.276,4.317,0,2.813,2.066,4.011,4.271,4.011A4.746,4.746,0,0,0,50.9,25.629a1.923,1.923,0,0,0,2.094,1.643,3.727,3.727,0,0,0,.949-0.139V25.824A1.757,1.757,0,0,1,53.409,25.907Zm-6.253.167a2.594,2.594,0,0,1-2.875-2.7c0-1.978,1.619-2.841,3.908-2.841a8.936,8.936,0,0,1,2.484.362v3.12A3.733,3.733,0,0,1,47.156,26.075Zm8.683,1.086H57.43V18.666c0.642-2.7,2.4-3.732,4.662-3.565V13.513a4.541,4.541,0,0,0-4.8,2.952V13.792H55.839V27.161ZM67.621,13.485c-2.624,0-4.41,1.42-4.41,3.649,0,4.735,7.2,3.314,7.2,6.712,0,1.448-1.228,2.172-3.043,2.172a7.376,7.376,0,0,1-4.1-1.142v1.56a7.711,7.711,0,0,0,4.187,1.031c2.484,0,4.55-1.17,4.55-3.649,0-4.679-7.174-3.342-7.174-6.712,0-1.393,1.2-2.2,2.9-2.2a6.65,6.65,0,0,1,3.489,1V14.4A7.525,7.525,0,0,0,67.621,13.485Z"/>
</svg>
