<svg xmlns="http://www.w3.org/2000/svg" width="150" height="50" viewBox="0 0 150 50">
  <metadata><?xpacket begin="﻿" id="W5M0MpCehiHzreSzNTczkc9d"?>
<x:xmpmeta xmlns:x="adobe:ns:meta/" x:xmptk="Adobe XMP Core 5.6-c138 79.159824, 2016/09/14-01:09:01        ">
   <rdf:RDF xmlns:rdf="http://www.w3.org/1999/02/22-rdf-syntax-ns#">
      <rdf:Description rdf:about=""/>
   </rdf:RDF>
</x:xmpmeta>
                                                                                                    
                                                                                                    
                                                                                                    
                                                                                                    
                                                                                                    
                                                                                                    
                                                                                                    
                                                                                                    
                                                                                                    
                                                                                                    
                                                                                                    
                                                                                                    
                                                                                                    
                                                                                                    
                                                                                                    
                                                                                                    
                                                                                                    
                                                                                                    
                                                                                                    
                                                                                                    
                           
<?xpacket end="w"?></metadata>
<defs>
    <style>
      .cls-1 {
        fill-rule: evenodd;
      }
    </style>
  </defs>
  <path id="Forma_1" data-name="Forma 1" class="cls-1" d="M45.993,12.569V42.607A4.371,4.371,0,0,1,41.655,47H8.345A4.377,4.377,0,0,1,4,42.6V25h7.241V3H45.993v9.5c0,0.012.007,0.023,0.007,0.035S45.994,12.556,45.993,12.569Zm-34.751,13.9H5.448V42.6a2.9,2.9,0,1,0,5.793,0V26.467Zm33.3-22H12.69V11.8H44.545V4.467Zm0,8.8H12.69V42.6a4.43,4.43,0,0,1-.072.777c0,0.021-.006.044-0.01,0.066a4.392,4.392,0,0,1-.2.7c-0.011.03-.021,0.06-0.033,0.09a4.334,4.334,0,0,1-.306.622c-0.019.032-.037,0.063-0.056,0.094a4.362,4.362,0,0,1-.4.546c-0.011.013-.019,0.029-0.03,0.042H41.655a2.911,2.911,0,0,0,2.889-2.926V13.267ZM31.517,32.333H41.655V42.6H31.517V32.333Zm1.448,8.8h7.241V33.8H32.966v7.333ZM40.931,29.4h-23.9a0.733,0.733,0,0,1,0-1.467h23.9A0.733,0.733,0,0,1,40.931,29.4Zm0-4.4H29.345a0.733,0.733,0,0,1,0-1.467H40.931A0.733,0.733,0,0,1,40.931,25Zm0-4.4H29.345a0.733,0.733,0,0,1,0-1.467H40.931A0.733,0.733,0,0,1,40.931,20.6Zm0-4.4H29.345a0.733,0.733,0,0,1,0-1.467H40.931A0.733,0.733,0,0,1,40.931,16.2ZM15.586,14.733H25.724V25H15.586V14.733Zm1.448,8.8h7.241V16.2H17.035v7.333Zm0,8.8H27.9a0.733,0.733,0,0,1,0,1.467H17.035A0.733,0.733,0,0,1,17.035,32.333Zm0,4.4H27.9a0.733,0.733,0,0,1,0,1.467H17.035A0.733,0.733,0,0,1,17.035,36.733Zm0,4.4H27.9a0.733,0.733,0,0,1,0,1.467H17.035A0.733,0.733,0,0,1,17.035,41.133Zm20.276-30.8H19.931v-4.4H37.31v4.4ZM35.862,7.4H21.379V8.867H35.862V7.4Z"/>
  <path id="Forma_1-2" data-name="Forma 1" class="cls-1" d="M98.785,26.22a0.728,0.728,0,0,1-1.029.03L92.17,20.967V46.283a0.727,0.727,0,0,1-.727.728H58.554a0.728,0.728,0,0,1-.727-0.728V20.967l-5.585,5.282a0.727,0.727,0,0,1-1-1.058l6.675-6.314a0.724,0.724,0,0,1,.356-0.336L74.5,3.2a0.727,0.727,0,0,1,1,0L91.724,18.541a0.723,0.723,0,0,1,.351.332l6.681,6.318A0.731,0.731,0,0,1,98.785,26.22ZM80.073,45.555V31.236H69.926V45.555H80.073ZM90.716,19.593L75,4.726,59.28,19.592V45.555h9.192V30.509a0.728,0.728,0,0,1,.727-0.728H80.8a0.728,0.728,0,0,1,.727.728V45.555h9.189V19.593Z"/>
  <path id="Forma_1-3" data-name="Forma 1" class="cls-1" d="M149,49H101l8.595-18.016h5.9l-2.408-3.471c-4.5-5.985-3.845-15.863,1.416-21.113a15.069,15.069,0,0,1,21.284,0c5.26,5.25,5.914,15.127,1.4,21.136l-2.391,3.447h5.62Zm-13.1-22.38c4.1-5.454,3.514-14.374-1.234-19.113a13.5,13.5,0,0,0-19.065,0c-4.748,4.738-5.332,13.658-1.252,19.089l3.043,4.387,7.741,11.157ZM133.7,32.55l-8.562,12.343L116.576,32.55h-5.991l-7.1,14.884h43.032l-7.1-14.884H133.7ZM119.784,16.883a5.494,5.494,0,1,1,5.494,5.483A5.5,5.5,0,0,1,119.784,16.883Zm5.494,3.917a3.917,3.917,0,1,0-3.924-3.917A3.925,3.925,0,0,0,125.278,20.8Z"/>
</svg>
